<!-- Generated by IcoMoon.io -->
<svg version="1.1" xmlns="http://www.w3.org/2000/svg" width="34" height="32" viewBox="0 0 34 32">
<title>alarm</title>
<path fill="#95e1d3" d="M32.252 9.967c-1.704-3.897-4.751-6.942-8.542-8.604l-0.106-0.041c1.038-0.825 2.368-1.324 3.814-1.324 3.4 0 6.157 2.756 6.157 6.157 0 1.446-0.498 2.775-1.332 3.825l0.010-0.013zM32 16.787c0 0.001 0 0.001 0 0.002 0 4.043-1.583 7.716-4.164 10.433l0.006-0.007 2.129 2.13c0.281 0.281 0.456 0.67 0.456 1.1 0 0.859-0.696 1.555-1.555 1.555-0 0-0.001 0-0.001 0h0c-0.429-0.002-0.817-0.174-1.101-0.451l-2.285-2.287c-2.425 1.713-5.441 2.738-8.698 2.738-3.25 0-6.261-1.021-8.731-2.76l0.048 0.032-2.269 2.266c-0.287 0.297-0.688 0.481-1.133 0.481-0.869 0-1.574-0.705-1.574-1.574 0-0.444 0.184-0.845 0.479-1.131l0-0 2.111-2.109c-2.561-2.715-4.135-6.386-4.135-10.424 0-8.399 6.809-15.208 15.208-15.208s15.208 6.809 15.208 15.208c0 0.002 0 0.004 0 0.006v-0zM16.787 4.721c-6.664 0-12.066 5.402-12.066 12.066s5.402 12.066 12.066 12.066c6.664 0 12.066-5.402 12.066-12.066v0c0-6.664-5.402-12.066-12.066-12.066v0zM23.082 18.361h-6.295c-0.869 0-1.574-0.705-1.574-1.574v0-8.393c0-0.869 0.705-1.574 1.574-1.574s1.574 0.705 1.574 1.574v0 6.82h4.721c0.869 0 1.574 0.705 1.574 1.574s-0.705 1.574-1.574 1.574v0zM1.35 10.188c-0.84-1.060-1.348-2.417-1.348-3.892 0-3.476 2.817-6.294 6.292-6.295h0c0.004 0 0.008 0 0.012 0 1.471 0 2.823 0.51 3.888 1.363l-0.012-0.010c-3.984 1.736-7.098 4.85-8.791 8.726l-0.042 0.108z"></path>
</svg>
