<!-- Generated by IcoMoon.io -->
<svg version="1.1" xmlns="http://www.w3.org/2000/svg" width="35" height="32" viewBox="0 0 35 32">
<title>COMPUTER</title>
<path fill="#95e1d3" d="M33.714 26.286h-10.857v2.857l2.286 2.286v0.571h-14.857v-0.571l2.286-2.286v-2.857h-10.857c-0.947 0-1.714-0.767-1.714-1.714v0-22.857c0-0.947 0.767-1.714 1.714-1.714v0h32c0.947 0 1.714 0.767 1.714 1.714v0 22.857c0 0.947-0.767 1.714-1.714 1.714v0zM33.143 2.286h-30.857v19.429h30.857v-19.429zM14.286 10.286c0.473 0.001 0.901 0.193 1.211 0.503l1.074 1.074 3.36-3.36c0.314-0.336 0.76-0.546 1.254-0.546 0.947 0 1.714 0.767 1.714 1.714 0 0.495-0.209 0.94-0.545 1.253l-0.001 0.001-4.571 4.571c-0.31 0.31-0.738 0.501-1.211 0.501s-0.901-0.192-1.211-0.501l-2.286-2.286c-0.31-0.31-0.501-0.738-0.501-1.211 0-0.946 0.767-1.713 1.713-1.714h0z"></path>
</svg>
