<!-- Generated by IcoMoon.io -->
<svg version="1.1" xmlns="http://www.w3.org/2000/svg" width="32" height="32" viewBox="0 0 32 32">
<title>facebook</title>
<path fill="#4267b2" d="M30.234 0h-28.469c-0.975 0.001-1.765 0.791-1.765 1.766v28.469c0.001 0.975 0.791 1.765 1.766 1.765h28.467c0.975 0 1.766-0.79 1.766-1.766 0-0 0-0 0-0.001v-28.469c-0-0.975-0.791-1.765-1.766-1.765z"></path>
<path fill="#fff" d="M22.094 32v-12.375h4.172l0.625-4.844h-4.797v-3.085c0-1.399 0.388-2.353 2.395-2.353h2.543v-4.321c-0.442-0.059-1.96-0.19-3.726-0.19-3.688 0-6.211 2.25-6.211 6.384v3.565h-4.156v4.844h4.156v12.375z"></path>
</svg>
