<!-- Generated by IcoMoon.io -->
<svg version="1.1" xmlns="http://www.w3.org/2000/svg" width="32" height="32" viewBox="0 0 32 32">
<title>instagram</title>
<path fill="#000" d="M2 2.177c-2.515 2.612-2 5.387-2 13.816 0 7-1.221 14.017 5.171 15.669 1.996 0.513 19.681 0.513 21.675-0.003 2.661-0.687 4.827-2.845 5.123-6.609 0.041-0.525 0.041-17.58-0.001-18.116-0.315-4.009-2.783-6.32-6.035-6.788-0.745-0.108-0.895-0.14-4.719-0.147-13.564 0.007-16.537-0.597-19.213 2.177z"></path>
<path fill="#fff" d="M15.997 4.185c-4.841 0-9.439-0.431-11.195 4.076-0.725 1.861-0.62 4.279-0.62 7.74 0 3.037-0.097 5.892 0.62 7.739 1.752 4.509 6.387 4.077 11.192 4.077 4.636 0 9.416 0.483 11.193-4.077 0.727-1.88 0.62-4.261 0.62-7.739 0-4.616 0.255-7.596-1.984-9.833-2.267-2.267-5.332-1.983-9.832-1.983zM14.939 6.315c10.099-0.016 11.384-1.139 10.675 14.457-0.252 5.516-4.452 4.911-9.615 4.911-9.413 0-9.684-0.269-9.684-9.687 0-9.527 0.747-9.676 8.624-9.684zM22.304 8.276c-0.783 0-1.417 0.635-1.417 1.417s0.635 1.417 1.417 1.417 1.417-0.635 1.417-1.417-0.635-1.417-1.417-1.417zM15.997 9.933c-3.351 0-6.067 2.717-6.067 6.068s2.716 6.067 6.067 6.067 6.065-2.716 6.065-6.067-2.715-6.068-6.065-6.068zM15.997 12.063c5.207 0 5.213 7.877 0 7.877-5.205 0-5.213-7.877 0-7.877z"></path>
</svg>
